<svg xmlns="http://www.w3.org/2000/svg" version="1.1" xmlns:xlink="http://www.w3.org/1999/xlink" viewBox="0 0 200 200"><rect width="200" height="200" fill="url('#gradient')"/><defs><linearGradient id="gradient" gradientTransform="rotate(45 0.5 0.5)"><stop offset="0%" stop-color="#472027"/><stop offset="100%" stop-color="#192025"/></linearGradient></defs><g><g fill="#f3bd7d" transform="matrix(1.9781068898905345,0,0,1.9781068898905345,9.592500648696955,114.64033482846949)" stroke="#c06a3e" stroke-width="0.2"><path d="M10.11-14.22L12.09-5.30L13.72-14.22L17.12-14.22L14.10 0L10.55 0L8.64-8.11L6.78 0L3.23 0L0.21-14.22L3.61-14.22L5.24-5.30L7.20-14.22L10.11-14.22ZM27.23 0L23.94 0Q23.76-0.32 23.62-0.95L23.62-0.95Q22.71 0.20 21.08 0.20L21.08 0.20Q19.59 0.20 18.54-0.71Q17.50-1.61 17.50-2.98L17.50-2.98Q17.50-4.70 18.77-5.58Q20.04-6.46 22.46-6.46L22.46-6.46L23.48-6.46L23.48-7.01Q23.48-8.47 22.22-8.47L22.22-8.47Q21.04-8.47 21.04-7.31L21.04-7.31L17.75-7.31Q17.75-8.85 19.06-9.80Q20.36-10.76 22.38-10.76Q24.40-10.76 25.58-9.78Q26.75-8.79 26.78-7.07L26.78-7.07L26.78-2.39Q26.80-0.94 27.23-0.17L27.23-0.17L27.23 0ZM21.88-2.15L21.88-2.15Q22.49-2.15 22.90-2.41Q23.30-2.68 23.48-3.01L23.48-3.01L23.48-4.70L22.52-4.70Q20.80-4.70 20.80-3.15L20.80-3.15Q20.80-2.71 21.10-2.43Q21.41-2.15 21.88-2.15ZM28.54-10.57L31.62-10.57L31.73-9.33Q32.82-10.76 34.75-10.76L34.75-10.76Q36.40-10.76 37.21-9.78Q38.03-8.79 38.06-6.81L38.06-6.81L38.06 0L34.76 0L34.76-6.67Q34.76-7.47 34.43-7.85Q34.11-8.22 33.26-8.22L33.26-8.22Q32.29-8.22 31.83-7.46L31.83-7.46L31.83 0L28.54 0L28.54-10.57ZM39.46-5.36L39.46-5.36Q39.46-7.87 40.55-9.32Q41.63-10.76 43.57-10.76L43.57-10.76Q44.99-10.76 45.96-9.65L45.96-9.65L45.96-15L49.26-15L49.26 0L46.30 0L46.13-1.13Q45.12 0.20 43.55 0.20L43.55 0.20Q41.67 0.20 40.57-1.25Q39.46-2.70 39.46-5.36ZM42.76-5.76L42.75-5.16Q42.75-2.34 44.39-2.34L44.39-2.34Q45.49-2.34 45.96-3.26L45.96-3.26L45.96-7.29Q45.51-8.22 44.41-8.22L44.41-8.22Q42.89-8.22 42.76-5.76L42.76-5.76ZM56.24 0.20L56.24 0.20Q53.81 0.20 52.30-1.25Q50.80-2.71 50.80-5.03L50.80-5.03L50.80-5.30Q50.80-6.92 51.40-8.16Q52.00-9.40 53.15-10.08Q54.31-10.76 55.89-10.76L55.89-10.76Q58.12-10.76 59.40-9.38Q60.69-8.00 60.69-5.53L60.69-5.53L60.69-4.25L54.15-4.25Q54.33-3.36 54.92-2.85Q55.52-2.34 56.46-2.34L56.46-2.34Q58.03-2.34 58.91-3.44L58.91-3.44L60.41-1.66Q59.79-0.81 58.67-0.31Q57.54 0.20 56.24 0.20ZM55.87-8.22L55.87-8.22Q54.42-8.22 54.15-6.31L54.15-6.31L57.47-6.31L57.47-6.56Q57.49-7.35 57.07-7.79Q56.65-8.22 55.87-8.22ZM68.47-10.64L68.41-7.59L67.32-7.67Q65.77-7.67 65.33-6.69L65.33-6.69L65.33 0L62.04 0L62.04-10.57L65.13-10.57L65.23-9.21Q66.06-10.76 67.55-10.76L67.55-10.76Q68.08-10.76 68.47-10.64L68.47-10.64ZM69.94-3.19L69.94-3.19Q70.72-3.19 71.24-2.73Q71.76-2.27 71.76-1.54Q71.76-0.82 71.24-0.36Q70.72 0.11 69.94 0.11L69.94 0.11Q69.15 0.11 68.64-0.36Q68.13-0.83 68.13-1.54Q68.13-2.26 68.64-2.72Q69.15-3.19 69.94-3.19ZM83.01 0L82.18-2.66L77.48-2.66L76.66 0L73.00 0L78.21-14.22L81.44-14.22L86.69 0L83.01 0ZM79.82-10.23L78.30-5.30L81.36-5.30L79.82-10.23ZM91.04-10.57L91.04 0L87.74 0L87.74-10.57L91.04-10.57ZM87.55-13.29L87.55-13.29Q87.55-13.99 88.06-14.44Q88.56-14.89 89.38-14.89Q90.19-14.89 90.69-14.44Q91.20-13.99 91.20-13.29Q91.20-12.59 90.69-12.14Q90.19-11.69 89.38-11.69Q88.56-11.69 88.06-12.14Q87.55-12.59 87.55-13.29Z"/></g></g></svg>